<svg width="17" height="21" viewBox="0 0 17 21" fill="none" xmlns="http://www.w3.org/2000/svg">
<path d="M6 16.9229C5.45 16.9229 4.979 16.7269 4.587 16.3349C4.195 15.9429 3.99934 15.4722 4 14.9229V2.92285C4 2.37285 4.196 1.90185 4.588 1.50985C4.98 1.11785 5.45067 0.922187 6 0.922853H15C15.55 0.922853 16.021 1.11885 16.413 1.51085C16.805 1.90285 17.0007 2.37352 17 2.92285V14.9229C17 15.4729 16.804 15.9439 16.412 16.3359C16.02 16.7279 15.5493 16.9235 15 16.9229H6ZM6 14.9229H15V2.92285H6V14.9229ZM2 20.9229C1.45 20.9229 0.979002 20.7269 0.587002 20.3349C0.195002 19.9429 -0.000664969 19.4722 1.69779e-06 18.9229V5.92285C1.69779e-06 5.63952 0.0960018 5.40185 0.288002 5.20985C0.480002 5.01785 0.717335 4.92219 1 4.92285C1.28333 4.92285 1.521 5.01885 1.713 5.21085C1.905 5.40285 2.00067 5.64019 2 5.92285V18.9229H12C12.2833 18.9229 12.521 19.0189 12.713 19.2109C12.905 19.4029 13.0007 19.6402 13 19.9229C13 20.2062 12.904 20.4439 12.712 20.6359C12.52 20.8279 12.2827 20.9235 12 20.9229H2Z" fill="#333333"/>
</svg>
