<svg width="31" height="17" viewBox="0 0 31 17" fill="none" xmlns="http://www.w3.org/2000/svg">
<g clip-path="url(#clip0_1_123)">
<path d="M6.95461 8.25358C6.58993 8.28939 6.27148 8.29942 5.96476 8.36389C5.87745 8.3818 5.76958 8.55515 5.76591 8.66045C5.7461 9.2328 5.75417 9.80587 5.75637 10.3789C5.76225 11.9785 5.77105 13.5774 5.77545 15.1769C5.77619 15.3911 5.76812 15.6067 5.74904 15.8202C5.71382 16.2142 5.51864 16.4413 5.11653 16.4914C3.69891 16.6683 2.28128 16.8417 0.859978 16.9907C0.255357 17.0544 0.00147536 16.8044 0.00147536 16.2049C-0.00145969 12.3732 -0.000725924 8.54226 0.00294289 4.7106C0.00367665 4.17191 0.205461 3.952 0.755783 3.8861C3.412 3.56805 6.06822 3.25501 8.72444 2.93982C9.75538 2.81733 10.7849 2.68481 11.8173 2.57664C12.4652 2.50931 12.7132 2.74856 12.7132 3.38968C12.7139 7.16117 12.7146 10.9334 12.7139 14.7049C12.7139 15.4556 12.5972 15.5967 11.8305 15.6927C10.5706 15.851 9.30925 16.0014 8.04645 16.1397C7.19528 16.2328 6.96048 16.0165 6.95975 15.1855C6.95754 13.0129 6.95608 10.841 6.95388 8.66833C6.95388 8.54226 6.95461 8.41475 6.95461 8.25358Z" fill="white"/>
<path d="M21.431 6.48134C21.431 6.77862 21.431 7.0279 21.431 7.27647C21.4317 9.32948 21.4361 11.3818 21.4332 13.4348C21.4325 14.2149 21.3261 14.3495 20.541 14.4556C19.295 14.6239 18.0454 14.7672 16.7966 14.9169C16.652 14.9341 16.5031 14.9298 16.357 14.9248C15.9491 14.9097 15.7253 14.712 15.693 14.308C15.6666 13.9756 15.6644 13.6404 15.6644 13.3066C15.6651 11.409 15.6702 9.51143 15.6717 7.61386C15.6717 7.48421 15.657 7.35455 15.646 7.17977C15.2821 7.21917 14.9357 7.26 14.5879 7.29366C14.3818 7.31372 14.1741 7.33951 13.9679 7.33449C13.5504 7.32375 13.2833 7.09739 13.2789 6.69696C13.2657 5.38464 13.2679 4.0716 13.2833 2.75856C13.2877 2.37604 13.5409 2.16258 14.0171 2.09811C14.6584 2.01143 15.3019 1.94409 15.9439 1.86673C18.2347 1.59166 20.5255 1.32017 22.8156 1.03722C23.5024 0.95269 23.8554 1.21773 23.859 1.88106C23.8649 3.00283 23.8671 4.12461 23.8598 5.24639C23.8546 6.02719 23.7284 6.16258 22.9308 6.29438C22.6901 6.33378 22.4465 6.35813 22.2044 6.38822C21.9637 6.41831 21.723 6.44624 21.431 6.48134Z" fill="white"/>
<path d="M29.8678 0.00143638C30.8136 -0.0200536 31.0558 0.207024 30.9905 0.913327C30.7579 3.4298 30.5098 5.94556 30.2684 8.46132C30.2457 8.69843 30.2281 8.93625 30.2002 9.17264C30.1584 9.53152 29.936 9.73066 29.5809 9.77508C28.3944 9.92479 27.2086 10.0852 26.0192 10.2013C25.4051 10.2607 25.1563 10.0172 25.0969 9.39972C24.9421 7.80946 24.7975 6.21848 24.6464 4.62751C24.5583 3.70201 24.4644 2.77722 24.3734 1.85244C24.3639 1.75717 24.3536 1.66261 24.3492 1.56734C24.3162 0.859603 24.493 0.649717 25.2157 0.560892C26.8396 0.363184 28.4634 0.169774 29.8678 0.00143638Z" fill="white"/>
<path d="M30.4834 12.9663C30.4834 13.5508 30.4944 14.1361 30.4805 14.7206C30.4687 15.2242 30.2633 15.4384 29.7585 15.5007C28.4127 15.6669 27.067 15.8295 25.7213 15.9878C25.2444 16.0437 24.8833 15.7815 24.8753 15.3123C24.8525 14.0594 24.8555 12.8058 24.8716 11.5523C24.876 11.2048 25.0998 10.9735 25.4652 10.9269C26.8711 10.7485 28.277 10.5695 29.6858 10.409C30.1503 10.356 30.4526 10.6225 30.4724 11.1053C30.4981 11.7249 30.4783 12.346 30.4783 12.9663C30.4798 12.9663 30.4812 12.9663 30.4834 12.9663Z" fill="white"/>
</g>
<defs>
<clipPath id="clip0_1_123">
<rect width="31" height="17" fill="white"/>
</clipPath>
</defs>
</svg>
