<svg width="86" height="35" viewBox="0 0 86 35" fill="none" xmlns="http://www.w3.org/2000/svg">
<path d="M79.4282 23.7375C79.0642 23.7666 78.7883 24.0864 78.7852 24.4397C78.717 25.4945 78.7796 26.5561 78.756 27.6078C78.7687 28.1148 78.7137 28.6384 78.8332 29.1294C78.963 29.4852 79.3847 29.6944 79.7516 29.5993C81.2801 29.4111 82.8022 29.2247 84.3321 29.0426C84.547 29.0227 84.7777 28.9663 84.9349 28.798C85.1973 28.5684 85.1492 28.1751 85.1757 27.8617C85.1793 26.8105 85.1685 25.7594 85.1793 24.7076C85.1685 24.3297 85.2002 23.9417 85.0896 23.5777C84.9687 23.2691 84.6242 23.1005 84.3039 23.1288C82.6786 23.3384 81.0534 23.5282 79.4282 23.7375ZM23.6385 18.3588C23.434 18.3779 23.2154 18.4382 23.0583 18.5835C22.8965 18.7573 22.8142 19.0061 22.8399 19.2451C22.8319 20.5056 22.8441 21.7676 22.8347 23.0248C22.3608 23.1093 21.8849 23.165 21.4052 23.2036C21.3987 22.1637 21.4052 21.1239 21.4052 20.0866C21.3944 19.7335 21.4334 19.3491 21.2382 19.0303C21.0246 18.7512 20.6554 18.6967 20.3243 18.7676C18.8359 18.9456 17.3448 19.1396 15.8529 19.3105C15.5768 19.3458 15.2607 19.354 15.0592 19.5732C14.7984 19.8027 14.8285 20.1909 14.8147 20.5056C14.822 24.7781 14.822 29.0509 14.8147 33.3242C14.8326 33.6879 14.7898 34.0816 14.9997 34.406C15.1296 34.5147 15.2759 34.639 15.4542 34.6589C15.8529 34.6747 16.245 34.6006 16.6414 34.5545C17.9162 34.4013 19.1951 34.2358 20.4732 34.0912C20.7479 34.0658 21.0534 34.0123 21.2218 33.7778C21.4232 33.5386 21.3888 33.1954 21.4052 32.9079C21.4052 31.6432 21.3987 30.3804 21.4052 29.1215C21.882 29.0628 22.3608 29.0062 22.8399 28.9471C22.8441 30.2024 22.8319 31.448 22.8399 32.6909C22.8484 32.9316 22.8219 33.2196 23.0112 33.4044C23.1851 33.6828 23.5582 33.7134 23.8563 33.6732C25.374 33.4842 26.8901 33.3 28.4022 33.1158C28.6602 33.0856 28.9464 33.0595 29.1493 32.8862C29.3434 32.7127 29.3988 32.438 29.3808 32.1939C29.3779 27.7081 29.3808 23.2238 29.3779 18.7434C29.3893 18.4535 29.3671 18.1004 29.1006 17.9202C28.8452 17.7063 28.4905 17.7914 28.1863 17.8066C26.6729 17.9943 25.1502 18.1746 23.6385 18.3588ZM39.694 16.4064C39.4045 16.4565 39.2647 16.7445 39.1213 16.9741C38.2896 18.4828 37.453 19.9874 36.6094 21.4925C36.5705 20.2263 36.618 18.9573 36.5885 17.6915C36.6057 17.3625 36.3958 17.0033 36.0617 16.9144C35.6043 16.864 35.1446 16.9581 34.6945 17.0092C33.4585 17.1644 32.2299 17.309 30.9981 17.4612C30.763 17.4874 30.4926 17.5661 30.3557 17.7805C30.2318 17.9447 30.2125 18.1643 30.2217 18.3633C30.226 22.4236 30.226 26.4868 30.2217 30.5516C30.226 31.1035 30.1974 31.6624 30.2495 32.2138C30.2798 32.4875 30.5185 32.6979 30.7796 32.7721C31.3471 32.803 31.9035 32.6777 32.4701 32.6185C33.6197 32.4781 34.7734 32.3394 35.9233 32.1939C36.2156 32.1939 36.4989 32.0246 36.6373 31.767C37.4931 30.2231 38.3414 28.679 39.2051 27.1344C39.2246 28.301 39.2002 29.4704 39.2137 30.634C39.2246 30.8905 39.1958 31.1889 39.3821 31.3883C39.5206 31.6317 39.834 31.7217 40.0979 31.6758C40.8525 31.6117 41.604 31.4981 42.3617 31.4068C43.2428 31.292 44.1337 31.2075 45.0198 31.0727C45.3448 31.0285 45.5879 30.7107 45.5848 30.3872C45.5879 25.8284 45.5848 21.2766 45.5879 16.7264C45.5942 16.4443 45.5699 16.0838 45.2895 15.9286C45.03 15.7244 44.6815 15.7889 44.3818 15.8193C42.822 16.0332 41.2518 16.1918 39.694 16.4064ZM55.3662 14.4795C54.9649 14.4795 54.4926 14.6829 54.4523 15.1262C54.4355 18.0899 54.47 21.0527 54.4355 24.0216C53.9483 24.0952 53.4608 24.14 52.9746 24.2052C52.9666 21.4363 52.9746 18.659 52.9746 15.8832C52.9898 15.5738 52.9375 15.1714 52.6297 15.0014C52.3945 14.8313 52.1008 14.8886 51.8305 14.9065C50.4796 15.0858 49.1265 15.2404 47.7721 15.4096C47.4116 15.4654 47.0195 15.4454 46.6941 15.6441C46.4902 15.8379 46.3964 16.1133 46.4257 16.3865C46.4352 20.8729 46.4257 25.3518 46.4257 29.8388C46.4452 30.0567 46.4078 30.3156 46.5649 30.5013C46.6941 30.6395 46.8596 30.7841 47.0637 30.7992C47.4875 30.804 47.9098 30.726 48.3298 30.6801C49.6833 30.5111 51.0377 30.3501 52.3881 30.1776C53.0728 30.1115 53.7589 29.9929 54.4478 29.9544C54.455 30.634 54.4193 31.3173 54.4714 32.0036C54.5268 32.3985 54.9771 32.6563 55.3585 32.5837C55.9314 32.5284 56.5054 32.438 57.076 32.3734C57.7178 32.2844 58.3601 32.244 58.9922 32.1244C59.3101 32.0454 59.4483 31.7001 59.5464 31.4224C60.346 29.0975 61.1382 26.7714 61.9488 24.4444C62.0535 24.1613 62.123 23.7914 61.921 23.5349C61.7347 23.2154 61.3136 23.1896 60.9934 23.1733C60.9903 20.4802 60.9903 17.7805 60.9934 15.0808C60.9824 14.7238 60.999 14.2953 60.6827 14.0505C60.4161 13.845 60.0762 13.9152 59.7631 13.9453C58.2977 14.1186 56.8333 14.3049 55.3662 14.4795ZM67.0497 13.0542C66.6861 13.049 66.4158 13.3395 66.3189 13.6683C64.6897 18.4182 63.0601 23.165 61.4271 27.9159C61.3373 28.198 61.3854 28.5447 61.6105 28.7518C61.822 28.9907 62.1711 28.9907 62.4663 28.9572C64.2149 28.7273 65.9763 28.5365 67.7249 28.301C68.0177 28.264 68.1932 27.9865 68.2814 27.7318C68.3888 27.3178 68.4734 26.9047 68.5687 26.4922C69.4041 26.3578 70.2434 26.2605 71.0859 26.1728C71.199 26.596 71.283 27.0304 71.4628 27.4378C71.6642 27.7318 72.0552 27.821 72.3863 27.7416C73.7521 27.5626 75.1207 27.4086 76.482 27.2382C76.9056 27.1833 77.3337 27.1586 77.751 27.0697C78.1115 26.9501 78.3364 26.5164 78.226 26.152C78.1294 25.7952 77.9831 25.45 77.857 25.1017C76.3822 21.0741 74.901 17.0389 73.4207 13.0096C73.3539 12.8254 73.2809 12.6311 73.106 12.5265C72.8573 12.3321 72.5201 12.3706 72.2344 12.4205C70.5085 12.6349 68.7781 12.8414 67.0497 13.0542ZM79.075 11.5704C78.7709 11.58 78.4484 11.6988 78.2798 11.9641C78.0819 12.4377 78.2325 12.9539 78.2605 13.438C78.5245 16.2315 78.7962 19.02 79.0418 21.8149C79.0642 22.0644 79.1014 22.3278 79.2355 22.5526C79.4672 22.8504 79.8856 22.8661 80.2333 22.82C81.3863 22.6671 82.5383 22.5327 83.6912 22.3985C83.9992 22.3539 84.3247 22.3173 84.5943 22.158C84.8287 21.9441 84.8414 21.6025 84.876 21.3021C85.0538 19.2502 85.2554 17.1926 85.4433 15.1416C85.5456 14.0348 85.6229 12.9298 85.7652 11.8288V11.48C85.6424 11.2514 85.5097 10.9671 85.2325 10.9084C84.669 10.8581 84.1069 10.9573 83.5491 11.0265C82.0563 11.2074 80.5662 11.3946 79.075 11.5704ZM0.780056 4.98048C0.544123 5.00528 0.276134 5.08507 0.135466 5.30002C-0.00573227 5.47401 0.0165938 5.71395 0.00573248 5.92294C0.00286623 10.3395 0.010786 14.7484 0 19.1614C0.0236084 19.4449 -0.0481218 19.7581 0.132674 20.0021C0.218057 20.1664 0.396439 20.2368 0.561999 20.2866C1.12981 20.3163 1.68758 20.1959 2.24815 20.1364C3.38165 20.0069 4.51515 19.8531 5.64081 19.7335C5.85072 19.6978 6.08378 19.6935 6.24573 19.5345C6.5696 19.334 6.54087 18.9072 6.55324 18.5726C6.54388 15.7785 6.54388 12.9787 6.54675 10.1809C7.02707 10.1259 7.50466 10.0667 7.97985 10.0063C7.99198 12.831 7.96846 15.6633 7.99198 18.4887C7.95616 18.876 8.22143 19.2701 8.61794 19.3195C8.99501 19.334 9.36648 19.2645 9.73207 19.2192C11.0095 19.0707 12.2905 18.9072 13.5667 18.7573C13.7487 18.7322 13.9307 18.7269 14.1007 18.6522C14.3538 18.5578 14.5274 18.2986 14.525 18.0292C14.5224 13.4078 14.5274 8.78068 14.5224 4.15838C14.5675 3.71984 14.1186 3.31763 13.6801 3.41626C12.988 3.46586 12.3043 3.58699 11.6124 3.65581C8.00337 4.10455 4.39258 4.54098 0.780056 4.98048ZM22.4355 2.33634C20.7284 2.50687 18.9914 3.04885 17.6983 4.21414C16.5833 5.26387 15.9611 6.79887 15.9954 8.32214C15.9611 9.25422 16.1418 10.2255 16.6745 11.0128C17.0142 11.5654 17.5569 11.9641 18.1577 12.211C17.1425 13.8819 16.1239 15.5498 15.098 17.2181C14.9208 17.517 14.8894 17.9156 15.1216 18.1894C15.2844 18.4575 15.6471 18.5086 15.9389 18.4686C17.701 18.2488 19.4666 18.0292 21.2326 17.8212C21.5215 17.7953 21.8476 17.7157 21.9839 17.4326C22.318 16.8448 22.5875 16.2234 22.9144 15.6192C22.9214 16.0234 22.9051 16.425 22.948 16.8251C22.9602 17.1742 23.272 17.4718 23.6105 17.5022C23.8148 17.5067 24.0141 17.4821 24.2127 17.4562C25.6213 17.273 27.0365 17.1145 28.4517 16.9388C28.7017 16.904 28.9807 16.875 29.1794 16.6937C29.3407 16.512 29.4015 16.253 29.3808 16.0124C29.3779 11.9491 29.3779 7.88398 29.3808 3.82462C29.3744 3.27283 29.4073 2.71547 29.3536 2.15715C29.3105 1.83281 28.9871 1.58941 28.6602 1.59979C28.1771 1.6044 27.6988 1.69861 27.2172 1.7536C25.6184 1.94797 24.032 2.14273 22.4355 2.33634ZM41.3443 0H41.6469C41.9918 0.0811333 42.2943 0.387787 42.2943 0.753465C42.3123 1.87318 42.2764 2.99463 42.2972 4.11916C42.2928 4.59269 42.3289 5.07623 42.2436 5.54361C42.1961 5.90218 41.8081 6.04695 41.4923 6.09059C40.8332 6.19518 40.1709 6.24593 39.5077 6.33937C39.5077 8.64206 39.5077 10.938 39.5077 13.2386C39.5019 13.8663 39.5395 14.4937 39.4804 15.1158C39.421 15.4853 39.0332 15.6886 38.6832 15.6983C37.6329 15.8193 36.5806 15.9576 35.5296 16.0838C34.8528 16.1505 34.1791 16.3108 33.5 16.2373C33.311 16.2062 33.1726 16.0524 33.0785 15.8974C32.9474 15.5902 32.9768 15.2458 32.9603 14.9228C32.9696 12.3321 32.9696 9.73698 32.9638 7.14167C32.3983 7.20281 31.8375 7.28664 31.2725 7.34604C30.9802 7.34732 30.6137 7.38603 30.4233 7.11745C30.1816 6.89904 30.2189 6.5499 30.2189 6.26093C30.2318 4.93146 30.2125 3.59737 30.226 2.27251C30.2426 2.03257 30.2024 1.7386 30.3975 1.5598C30.6585 1.25449 31.092 1.27718 31.4454 1.21604C34.7497 0.818256 38.0496 0.430084 41.3443 0Z" fill="white"/>
</svg>
