<svg width="24" height="25" viewBox="0 0 24 25" fill="none" xmlns="http://www.w3.org/2000/svg">
<ellipse cx="12" cy="12.5652" rx="12" ry="12.0348" fill="#FF335F"/>
<path d="M13.1163 7.38737C14.1807 7.38737 14.9369 7.38849 15.5107 7.46573C16.0716 7.5413 16.3953 7.68348 16.6314 7.92025C16.8675 8.15703 17.0093 8.48169 17.0847 9.04481C17.1617 9.62024 17.1628 10.3781 17.1628 11.4456C17.1628 11.5569 17.2069 11.6637 17.2854 11.7425C17.3639 11.8212 17.4704 11.8654 17.5814 11.8654C17.6924 11.8654 17.7989 11.8212 17.8774 11.7425C17.9559 11.6637 18 11.5569 18 11.4456V11.4143C18 10.3854 18 9.57042 17.9146 8.93286C17.8264 8.27682 17.6411 7.74561 17.2236 7.32635C16.8056 6.90765 16.2759 6.72181 15.6218 6.63337C14.9855 6.54773 14.1734 6.54773 13.1475 6.54773H13.1163C13.0053 6.54773 12.8988 6.59196 12.8203 6.67069C12.7418 6.74942 12.6977 6.8562 12.6977 6.96755C12.6977 7.07889 12.7418 7.18567 12.8203 7.2644C12.8988 7.34313 13.0053 7.38737 13.1163 7.38737ZM10.8525 6.54773H10.8837C10.9947 6.54773 11.1012 6.59196 11.1797 6.67069C11.2582 6.74942 11.3023 6.8562 11.3023 6.96755C11.3023 7.07889 11.2582 7.18567 11.1797 7.2644C11.1012 7.34313 10.9947 7.38737 10.8837 7.38737C9.81935 7.38737 9.06363 7.38849 8.4893 7.46573C7.92837 7.5413 7.60465 7.68348 7.36856 7.92025C7.13247 8.15703 6.9907 8.48169 6.91535 9.04481C6.83833 9.62024 6.83721 10.3781 6.83721 11.4456C6.83721 11.5569 6.79311 11.6637 6.7146 11.7425C6.6361 11.8212 6.52963 11.8654 6.4186 11.8654C6.30758 11.8654 6.20111 11.8212 6.12261 11.7425C6.0441 11.6637 6 11.5569 6 11.4456V11.4143C6 10.3854 6 9.57042 6.0854 8.93286C6.17358 8.27682 6.35888 7.74561 6.77637 7.32635C7.19442 6.90765 7.72409 6.72181 8.37823 6.63337C9.01451 6.54773 9.8266 6.54773 10.8525 6.54773Z" fill="white"/>
<path d="M8.38691 8.94172C8.09277 9.23671 8.09277 9.71195 8.09277 10.6619C8.09277 11.2949 8.09277 11.6118 8.28868 11.8088C8.48515 12.0053 8.80161 12.0053 9.43231 12.0053H10.1021C10.7333 12.0053 11.0492 12.0053 11.2457 11.8088C11.4416 11.6112 11.4416 11.2944 11.4416 10.6619V9.99015C11.4416 9.35706 11.4416 9.04024 11.2457 8.8432C11.0487 8.64673 10.7328 8.64673 10.1021 8.64673C9.15491 8.64673 8.68105 8.64673 8.38691 8.94172ZM8.38691 16.1883C8.09277 15.8933 8.09277 15.4181 8.09277 14.4682C8.09277 13.8351 8.09277 13.5183 8.28868 13.3213C8.48515 13.1248 8.80161 13.1248 9.43231 13.1248H10.1021C10.7333 13.1248 11.0492 13.1248 11.2457 13.3213C11.4416 13.5183 11.4416 13.8351 11.4416 14.4682V15.1399C11.4416 15.773 11.4416 16.0898 11.2457 16.2863C11.0487 16.4833 10.7328 16.4833 10.1021 16.4833C9.15491 16.4833 8.68105 16.4833 8.38691 16.1883ZM12.5579 9.99015C12.5579 9.35706 12.5579 9.04024 12.7538 8.8432C12.9508 8.64673 13.2667 8.64673 13.8974 8.64673C14.8446 8.64673 15.3184 8.64673 15.6126 8.94172C15.9067 9.23671 15.9067 9.71195 15.9067 10.6619C15.9067 11.2949 15.9067 11.6118 15.7103 11.8088C15.5149 12.0053 15.1984 12.0053 14.5672 12.0053H13.8974C13.2662 12.0053 12.9503 12.0053 12.7538 11.8088C12.5579 11.6112 12.5579 11.2944 12.5579 10.6619V9.99015ZM12.7538 16.2863C12.5579 16.0904 12.5579 15.773 12.5579 15.1399V14.4682C12.5579 13.8351 12.5579 13.5183 12.7538 13.3213C12.9508 13.1248 13.2667 13.1248 13.8974 13.1248H14.5672C15.1984 13.1248 15.5144 13.1248 15.7103 13.3213C15.9067 13.5183 15.9067 13.8351 15.9067 14.4682C15.9067 15.4181 15.9067 15.8933 15.6126 16.1883C15.3184 16.4833 14.8446 16.4833 13.8974 16.4833C13.2662 16.4833 12.9503 16.4833 12.7538 16.2863Z" fill="white"/>
<path d="M17.5814 13.2648C17.6924 13.2648 17.7989 13.309 17.8774 13.3877C17.9559 13.4665 18 13.5732 18 13.6846V13.7159C18 14.7448 18 15.5598 17.9146 16.1973C17.8264 16.8534 17.6411 17.3846 17.2236 17.8038C16.8056 18.2225 16.2759 18.4084 15.6218 18.4968C14.9855 18.5825 14.1734 18.5825 13.1475 18.5825H13.1163C13.0053 18.5825 12.8988 18.5382 12.8203 18.4595C12.7418 18.3808 12.6977 18.274 12.6977 18.1626C12.6977 18.0513 12.7418 17.9445 12.8203 17.8658C12.8988 17.7871 13.0053 17.7428 13.1163 17.7428C14.1807 17.7428 14.9369 17.7417 15.5107 17.6645C16.0716 17.5889 16.3953 17.4467 16.6314 17.2099C16.8675 16.9732 17.0093 16.6485 17.0847 16.0854C17.1617 15.5105 17.1628 14.752 17.1628 13.6846C17.1628 13.5732 17.2069 13.4665 17.2854 13.3877C17.3639 13.309 17.4704 13.2648 17.5814 13.2648ZM6.83721 13.6846C6.83721 13.5732 6.79311 13.4665 6.7146 13.3877C6.6361 13.309 6.52963 13.2648 6.4186 13.2648C6.30758 13.2648 6.20111 13.309 6.12261 13.3877C6.0441 13.4665 6 13.5732 6 13.6846V13.7159C6 14.7448 6 15.5598 6.0854 16.1973C6.17358 16.8534 6.35888 17.3846 6.77637 17.8038C7.19442 18.2225 7.72409 18.4084 8.37823 18.4968C9.01451 18.5825 9.8266 18.5825 10.8525 18.5825H10.8837C10.9947 18.5825 11.1012 18.5382 11.1797 18.4595C11.2582 18.3808 11.3023 18.274 11.3023 18.1626C11.3023 18.0513 11.2582 17.9445 11.1797 17.8658C11.1012 17.7871 10.9947 17.7428 10.8837 17.7428C9.81935 17.7428 9.06363 17.7417 8.4893 17.6645C7.92837 17.5889 7.60465 17.4467 7.36856 17.2099C7.13247 16.9732 6.9907 16.6485 6.91535 16.0854C6.83833 15.5105 6.83721 14.752 6.83721 13.6846Z" fill="white"/>
</svg>
