<svg width="24" height="25" viewBox="0 0 24 25" fill="none" xmlns="http://www.w3.org/2000/svg">
<ellipse cx="12" cy="12.1623" rx="12" ry="12.0348" fill="#FF335F"/>
<path d="M9.21667 15.0205C9.09445 14.8757 9.03333 14.7114 9.03333 14.5278C9.03333 14.3442 9.09445 14.1908 9.21667 14.0678L10.45 12.8309H5.66667C5.47778 12.8309 5.31934 12.7667 5.19134 12.6383C5.06334 12.51 4.99956 12.3513 5 12.1623C5 11.9729 5.064 11.8139 5.192 11.6856C5.32 11.5572 5.47822 11.4932 5.66667 11.4937H10.45L9.21667 10.2568C9.08333 10.1231 9.01667 9.96416 9.01667 9.78007C9.01667 9.59598 9.08333 9.4373 9.21667 9.30403C9.33889 9.17031 9.49178 9.10345 9.67533 9.10345C9.85889 9.10345 10.0116 9.16474 10.1333 9.28731L12.5333 11.6943C12.6 11.7611 12.6473 11.8336 12.6753 11.9116C12.7033 11.9896 12.7171 12.0731 12.7167 12.1623C12.7167 12.2514 12.7029 12.335 12.6753 12.413C12.6478 12.491 12.6004 12.5634 12.5333 12.6303L10.1333 15.0373C10 15.171 9.84445 15.2323 9.66667 15.2211C9.48889 15.21 9.33889 15.1431 9.21667 15.0205ZM11.6667 18.1797C11.4778 18.1797 11.3196 18.1157 11.192 17.9878C11.0644 17.8599 11.0004 17.701 11 17.5111C11 17.3216 11.064 17.1627 11.192 17.0344C11.32 16.906 11.4782 16.842 11.6667 16.8425H15.6667V7.4821H11.6667C11.4778 7.4821 11.3193 7.41791 11.1913 7.28954C11.0633 7.16117 10.9996 7.00249 11 6.8135C11 6.62406 11.064 6.46516 11.192 6.33679C11.32 6.20842 11.4782 6.14445 11.6667 6.1449H15.6667C16.0333 6.1449 16.3473 6.27595 16.6087 6.53804C16.87 6.80013 17.0004 7.11481 17 7.4821V16.8425C17 17.2102 16.8693 17.5251 16.608 17.7872C16.3467 18.0493 16.0329 18.1801 15.6667 18.1797H11.6667Z" fill="white"/>
</svg>
