<svg width="135" height="20" viewBox="0 0 135 20" fill="none" xmlns="http://www.w3.org/2000/svg">
<path d="M22.0671 10.791C22.0063 7.88756 20.8006 5.12542 18.7122 3.10492C16.6237 1.08442 13.8212 -0.0311575 10.9138 0.000662479C8.00643 0.0324824 5.2291 1.20913 3.18547 3.27485C1.14185 5.34058 -0.00291234 8.12844 5.56446e-06 11.0325H4.41414C4.38208 13.3704 5.28119 15.6253 6.91368 17.3012C8.54618 18.977 10.7783 19.9364 13.1191 19.9685C15.4599 20.0005 17.7175 19.1025 19.3953 17.4719C21.0732 15.8414 22.0338 13.612 22.0659 11.274C22.0659 11.1931 22.0659 11.1098 22.0659 11.0325C22.0659 10.9552 22.0695 10.8719 22.0671 10.791ZM13.2412 15.4461C12.3682 15.4461 11.5147 15.1876 10.7888 14.7031C10.0629 14.2187 9.49717 13.5301 9.16308 12.7245C8.82898 11.9189 8.74157 11.0324 8.91189 10.1772C9.08221 9.32198 9.50261 8.53641 10.1199 7.91982C10.7373 7.30324 11.5238 6.88334 12.3801 6.71322C13.2363 6.54311 14.1238 6.63042 14.9304 6.96411C15.737 7.29781 16.4264 7.8629 16.9114 8.58793C17.3965 9.31295 17.6553 10.1653 17.6553 11.0373C17.655 12.2063 17.19 13.3273 16.3625 14.1541C15.5351 14.9808 14.4128 15.4455 13.2424 15.4461H13.2412ZM84.883 4.12644C81.0383 4.12644 77.9105 7.22746 77.9105 11.0373C77.9105 14.9112 80.973 17.947 84.883 17.947C88.7929 17.947 91.853 14.9124 91.853 11.0373C91.853 7.22746 88.7289 4.12644 84.8842 4.12644H84.883ZM84.883 15.0489C82.8276 15.0489 81.3345 13.217 81.3345 11.0373C81.3345 8.85767 82.8264 7.02459 84.883 7.02459C86.8912 7.02459 88.4049 8.89269 88.4049 11.0373C88.4061 13.2218 86.925 15.0489 84.8842 15.0489H84.883ZM54.2415 4.4223L54.2246 5.95952L53.9381 5.61416C53.2804 4.82683 52.0206 4.12282 50.1623 4.12282C46.7371 4.12282 43.9491 7.22384 43.9491 11.0337C43.9491 14.8436 46.7371 17.9434 50.1623 17.9434C52.0206 17.9434 53.2804 17.2406 53.9381 16.4533L54.2258 16.1091L54.2427 17.6451H57.628V4.4223H54.2415ZM54.4422 11.0397C54.4422 13.3027 53.0531 15.0525 50.9469 15.0525C48.8408 15.0525 47.3719 13.3027 47.3719 11.0397C47.3719 8.77677 48.842 7.02701 50.9469 7.02701C53.0519 7.02701 54.4422 8.77677 54.4422 11.0397ZM117.545 4.4223L117.528 5.95952L117.242 5.61416C116.586 4.82683 115.326 4.12282 113.468 4.12282C110.042 4.12282 107.255 7.22384 107.255 11.0337C107.255 14.8436 110.042 17.9434 113.468 17.9434C115.326 17.9434 116.586 17.2406 117.242 16.4533L117.531 16.1091L117.548 17.6451H120.934V4.4223H117.545ZM117.745 11.0397C117.745 13.3027 116.356 15.0525 114.25 15.0525C112.144 15.0525 110.675 13.3027 110.675 11.0397C110.675 8.77677 112.145 7.02701 114.25 7.02701C116.355 7.02701 117.745 8.77677 117.745 11.0397ZM35.6637 7.02459C33.5745 7.02459 32.1152 8.75865 32.1152 11.0373C32.1152 13.316 33.5745 15.0489 35.6637 15.0489C37.1375 15.0489 38.2401 14.177 38.8604 12.7943H42.2831C41.4465 16.0258 38.9837 17.947 35.6589 17.947C31.6848 17.947 28.6865 14.9764 28.6865 11.0373C28.6865 7.09825 31.6848 4.12644 35.6589 4.12644C38.9837 4.12644 41.4465 6.04888 42.2831 9.28032H38.8604C38.2401 7.89766 37.1375 7.02459 35.6637 7.02459ZM68.0824 10.2319L72.6295 4.42471H75.5433V17.6487H72.1459V9.52183L68.1078 14.7144L64.0443 9.52183V17.6451H60.6493V4.42471H63.5619L68.0824 10.2319ZM100.909 10.9347L107.316 17.6487H102.976L97.5958 11.9358V17.6487H94.1985V4.42471H97.5958V10.2319L102.413 4.42471H106.414L100.909 10.9347ZM127.233 7.27214H123.236V4.42471H134.627V7.27214H130.63V17.6487H127.233V7.27214Z" fill="white"/>
</svg>
