<svg width="50" height="50" viewBox="0 0 50 50" fill="none" xmlns="http://www.w3.org/2000/svg">
<circle cx="25" cy="25" r="25" fill="#FF335F"/>
<path d="M36.999 26.4287C36.9274 23.0846 35.5069 19.9033 33.0463 17.5761C30.5857 15.249 27.2839 13.9641 23.8585 14.0008C20.433 14.0374 17.1608 15.3926 14.7531 17.7719C12.3453 20.1511 10.9966 23.3621 11 26.7069H16.2007C16.1629 29.3996 17.2222 31.9968 19.1456 33.9269C21.069 35.8571 23.6988 36.9622 26.4567 36.999C29.2145 37.0359 31.8744 36.0016 33.8512 34.1236C35.828 32.2456 36.9598 29.6778 36.9976 26.985C36.9976 26.8919 36.9976 26.7959 36.9976 26.7069C36.9976 26.6179 37.0019 26.5219 36.999 26.4287ZM26.6006 31.7904C25.572 31.7904 24.5665 31.4926 23.7112 30.9346C22.856 30.3766 22.1894 29.5836 21.7958 28.6557C21.4021 27.7278 21.2992 26.7068 21.4998 25.7218C21.7005 24.7368 22.1958 23.832 22.9231 23.1218C23.6505 22.4116 24.5771 21.928 25.586 21.7321C26.5948 21.5361 27.6405 21.6367 28.5908 22.021C29.5411 22.4054 30.3533 23.0562 30.9247 23.8913C31.4962 24.7264 31.8012 25.7081 31.8012 26.7124C31.8008 28.0588 31.253 29.35 30.2781 30.3022C29.3031 31.2544 27.9809 31.7896 26.602 31.7904H26.6006Z" fill="white"/>
</svg>
