<svg width="24" height="25" viewBox="0 0 24 25" fill="none" xmlns="http://www.w3.org/2000/svg">
<ellipse cx="12" cy="12.3334" rx="12" ry="12.0348" fill="#FF335F"/>
<path d="M9.5293 13.1003V7.08289C9.5293 6.80126 9.64085 6.53116 9.83942 6.33202C10.038 6.13287 10.3073 6.021 10.5881 6.021C10.8689 6.021 11.1383 6.13287 11.3368 6.33202C11.5354 6.53116 11.6469 6.80126 11.6469 7.08289V12.3924M11.6469 12.0384V10.6225C11.6469 10.3409 11.7585 10.0708 11.9571 9.87166C12.1556 9.67252 12.425 9.56064 12.7058 9.56064C12.9866 9.56064 13.2559 9.67252 13.4545 9.87166C13.653 10.0708 13.7646 10.3409 13.7646 10.6225V12.3924M13.7646 11.3305C13.7646 11.0488 13.8761 10.7787 14.0747 10.5796C14.2733 10.3804 14.5426 10.2686 14.8234 10.2686C15.1042 10.2686 15.3735 10.3804 15.5721 10.5796C15.7707 10.7787 15.8822 11.0488 15.8822 11.3305V12.3924" stroke="white" stroke-linecap="round" stroke-linejoin="round"/>
<path d="M15.8824 12.0384C15.8824 11.7568 15.9939 11.4867 16.1925 11.2876C16.391 11.0884 16.6604 10.9765 16.9412 10.9765C17.222 10.9765 17.4913 11.0884 17.6899 11.2876C17.8884 11.4867 18 11.7568 18 12.0384V15.2241C18 16.3506 17.5538 17.431 16.7595 18.2276C15.9652 19.0242 14.888 19.4717 13.7647 19.4717H12.3529H12.4998C11.7984 19.4718 11.1079 19.2972 10.4904 18.9636C9.87288 18.63 9.34766 18.1478 8.96188 17.5603L8.82353 17.3479C8.60329 17.0088 7.83035 15.6574 6.504 13.2929C6.36879 13.0519 6.33267 12.7674 6.40333 12.5001C6.47399 12.2328 6.64585 12.0037 6.88235 11.8614C7.13427 11.7099 7.42946 11.647 7.72105 11.6829C8.01264 11.7189 8.28391 11.8514 8.49176 12.0597L9.52941 13.1003M7.41176 6.02104L6.70588 5.31311M6.70588 8.85275H6M13.7647 6.02104L14.4706 5.31311M14.4706 8.14482H15.1765" stroke="white" stroke-linecap="round" stroke-linejoin="round"/>
</svg>
